#!OML:ASF F:\VICON\USERDATA\INSTALL\rory3\rory3.ASF
:FULLY-SPECIFIED
:DEGREES
486
root 0.326033 16.8668 32.0361 9.0058 2.42953 -1.91373
lowerback -8.19365 0.0737066 1.37185
upperback -4.1974 -0.0188257 2.20866
thorax 0.254359 -0.00593678 1.50349
lowerneck -15.9474 1.44761 0.798619
upperneck 46.1913 3.71341 -3.09843
head 21.5735 1.17608 -0.95922
rclavicle 1.1455e-014 -4.77083e-015
rhumerus -45.2697 -20.1061 -64.6459
rradius 20.8337
rwrist -3.41106
rhand -4.66536 12.071
rfingers 7.12502
rthumb 21.1149 -16.7993
lclavicle 1.1455e-014 -4.77083e-015
lhumerus -45.6024 27.3286 62.4887
lradius 31.2122
lwrist -0.558116
lhand -4.59954 20.7626
lfingers 7.12502
lthumb 21.1781 49.6258
rfemur -33.9577 15.6786 20.5905
rtibia 29.9287
rfoot -14.1787 -16.9958
rtoes 6.03379
lfemur 3.52218 -3.98918 -22.4469
ltibia 28.9893
lfoot -8.31042 11.8708
ltoes -32.6447
487
root 0.302984 16.8681 32.1795 8.90581 2.1843 -2.13189
lowerback -8.50538 0.151107 1.44857
upperback -3.95267 0.0603762 2.34139
thorax 0.677356 0.0343538 1.60554
lowerneck -16.0693 1.44012 0.711111
upperneck 46.1006 3.70957 -3.05628
head 21.5378 1.16318 -0.91882
rclavicle -1.21259e-014 -2.50469e-014
rhumerus -44.8966 -20.6373 -64.3061
rradius 20.4477
rwrist -2.80401
rhand -4.51204 11.7353
rfingers 7.12502
rthumb 21.2622 -17.1185
lclavicle -1.21259e-014 -2.50469e-014
lhumerus -45.9744 28.5082 61.7806
lradius 29.8632
lwrist -0.842413
lhand -4.63748 21.8807
lfingers 7.12502
lthumb 21.1417 50.748
rfemur -33.5177 16.0656 21.1201
rtibia 30.2056
rfoot -13.9344 -17.1287
rtoes 7.75378
lfemur 2.56735 -3.20444 -21.8481
ltibia 31.2378
lfoot -6.8351 11.2672
ltoes -31.74
488
root 0.272324 16.8634 32.3251 8.76157 1.83911 -2.55817
lowerback -8.52216 0.260508 1.63883
upperback -4.03147 0.190323 2.52573
thorax 0.602278 0.0985024 1.70072
lowerneck -15.6505 1.41672 0.629729
upperneck 46.1607 3.63516 -2.922
head 21.4359 1.14325 -0.852289
rclavicle -4.62174e-015 -1.47101e-014
rhumerus -45.1344 -20.6411 -63.9963
rradius 20.2395
rwrist -2.57649
rhand -4.49605 11.8002
rfingers 7.12502
rthumb 21.2775 -17.0518
lclavicle -4.62174e-015 -1.47101e-014
lhumerus -47.076 29.1813 60.7852
lradius 28.7151
lwrist -0.778912
lhand -4.62335 22.126
lfingers 7.12502
lthumb 21.1553 50.9918
rfemur -33.0567 16.8291 21.8234
rtibia 30.4967
rfoot -14.2359 -17.5561
rtoes 6.88905
lfemur 1.76856 -2.41293 -21.0243
ltibia 33.3581
lfoot -5.39448 10.7732
ltoes -30.5053
489
root 0.249709 16.8637 32.4918 8.52499 1.7246 -2.72681
lowerback -8.49748 0.307769 1.74904
upperback -4.17263 0.250071 2.5306
thorax 0.441878 0.12669 1.64858
lowerneck -15.1657 1.37622 0.80476
upperneck 46.2845 3.4775 -2.87854
head 21.3701 1.12659 -0.900693
rclavicle 1.63997e-015 -2.38542e-015
rhumerus -45.5983 -20.5567 -63.8297
rradius 20.2405
rwrist -2.57555
rhand -4.33497 11.5835
rfingers 7.12502
rthumb 21.4323 -17.251
lclavicle 1.63997e-015 -2.38542e-015
lhumerus -48.3853 29.7803 59.4808
lradius 27.5682
lwrist -0.858302
lhand -4.89732 22.3965
lfingers 7.12502
lthumb 20.8921 51.2915
rfemur -32.2709 17.0196 22.3856
rtibia 30.7515
rfoot -14.4685 -17.6331
rtoes 7.06927
lfemur 1.08568 -1.86678 -20.5134
ltibia 35.6361
lfoot -3.99453 10.3291
ltoes -28.4483
490
root 0.261961 16.877 32.6597 8.36456 2.26746 -2.96423
lowerback -8.68915 0.22027 2.3972
upperback -4.15933 0.0775697 2.51797
thorax 0.563641 0.0326105 1.25747
lowerneck -15.0358 1.32205 0.870964
upperneck 46.3245 3.34403 -2.84123
head 21.3529 1.09501 -0.923077
rclavicle 1.0138e-014 -1.03368e-014
rhumerus -45.6698 -20.8463 -63.5109
rradius 20.0997
rwrist -2.37618
rhand -4.22367 11.3195
rfingers 7.12502
rthumb 21.5392 -17.5029
lclavicle 1.0138e-014 -1.03368e-014
lhumerus -49.7194 31.8595 57.1655
lradius 25.7769
lwrist -2.70187
lhand -4.94972 22.3934
lfingers 7.12502
lthumb 20.8417 51.2939
rfemur -31.3038 15.7876 23.1658
rtibia 30.9208
rfoot -14.8008 -17.047
rtoes 7.45609
lfemur 0.2771 -1.8666 -20.003
ltibia 37.9481
lfoot -2.21558 10.0271
ltoes -28.7151
491
root 0.229502 16.8763 32.7633 8.06549 1.86642 -2.8027
lowerback -7.95576 0.325451 1.99159
upperback -4.20376 0.277208 2.52126
thorax 0.111831 0.135686 1.50105
lowerneck -14.9768 1.29229 0.743618
upperneck 46.3467 3.27806 -2.69928
head 21.3384 1.06678 -0.839266
rclavicle 8.4235e-015 2.98177e-014
rhumerus -45.7197 -21.3028 -63.0729
rradius 19.9736
rwrist -1.88045
rhand -3.97899 11.1383
rfingers 7.12502
rthumb 21.7741 -17.6569
lclavicle 8.4235e-015 2.98177e-014
lhumerus -53.0833 38.1217 49.8787
lradius 21.8314
lwrist -10.094
lhand -4.53095 20.1183
lfingers 7.12502
lthumb 21.244 48.9741
rfemur -30.7033 16.7081 23.2147
rtibia 31.0591
rfoot -14.8256 -17.5605
rtoes 8.18845
lfemur -0.792812 -1.1312 -19.8208
ltibia 40.375
lfoot -0.247307 9.8022
ltoes -27.715
